<mxfile host="app.diagrams.net" modified="2023-11-24T22:08:54.727Z" agent="Mozilla/5.0 (Windows NT 10.0; Win64; x64) AppleWebKit/537.36 (KHTML, like Gecko) Chrome/119.0.0.0 Safari/537.36" etag="OyaXczEu2hMTc9UEmraN" version="22.1.3" type="github">
  <diagram name="Сторінка-1" id="xnTz1qQAvWEni8UB2f_R">
    <mxGraphModel dx="1509" dy="813" grid="1" gridSize="10" guides="1" tooltips="1" connect="1" arrows="1" fold="1" page="1" pageScale="1" pageWidth="827" pageHeight="1169" math="0" shadow="0">
      <root>
        <mxCell id="0" />
        <mxCell id="1" value="Фон" parent="0" />
        <mxCell id="kabTlLA1WyUW2wctdZ1g-15" value="Diagram Heading" style="shape=umlFrame;whiteSpace=wrap;html=1;pointerEvents=0;recursiveResize=0;container=1;collapsible=0;width=160;" vertex="1" parent="1">
          <mxGeometry x="40" y="40" width="340" height="180" as="geometry" />
        </mxCell>
        <mxCell id="kabTlLA1WyUW2wctdZ1g-16" value="Diagram Heading" style="shape=umlFrame;whiteSpace=wrap;html=1;pointerEvents=0;recursiveResize=0;container=1;collapsible=0;width=160;" vertex="1" parent="1">
          <mxGeometry x="40" y="240" width="340" height="180" as="geometry" />
        </mxCell>
        <mxCell id="kabTlLA1WyUW2wctdZ1g-17" value="Diagram Heading" style="shape=umlFrame;whiteSpace=wrap;html=1;pointerEvents=0;recursiveResize=0;container=1;collapsible=0;width=160;" vertex="1" parent="1">
          <mxGeometry x="400" y="240" width="340" height="180" as="geometry" />
        </mxCell>
        <mxCell id="kabTlLA1WyUW2wctdZ1g-18" value="Diagram Heading" style="shape=umlFrame;whiteSpace=wrap;html=1;pointerEvents=0;recursiveResize=0;container=1;collapsible=0;width=160;" vertex="1" parent="1">
          <mxGeometry x="400" y="40" width="340" height="180" as="geometry" />
        </mxCell>
        <mxCell id="kabTlLA1WyUW2wctdZ1g-19" value="" style="shape=folder;fontStyle=1;spacingTop=10;tabWidth=200;tabHeight=40;tabPosition=left;html=1;whiteSpace=wrap;" vertex="1" parent="1">
          <mxGeometry x="40" y="460" width="840" height="600" as="geometry" />
        </mxCell>
        <mxCell id="kabTlLA1WyUW2wctdZ1g-22" value="bus driver shift manager&lt;br&gt;" style="shape=folder;fontStyle=1;spacingTop=10;tabWidth=40;tabHeight=14;tabPosition=left;html=1;whiteSpace=wrap;" vertex="1" parent="1">
          <mxGeometry x="950" y="60" width="100" height="50" as="geometry" />
        </mxCell>
        <mxCell id="kabTlLA1WyUW2wctdZ1g-23" value="&amp;lt;&amp;lt;profile&amp;gt;&amp;gt;&lt;br&gt;bus hardware" style="shape=folder;fontStyle=1;spacingTop=10;tabWidth=40;tabHeight=14;tabPosition=left;html=1;whiteSpace=wrap;" vertex="1" parent="1">
          <mxGeometry x="829" y="190" width="90" height="50" as="geometry" />
        </mxCell>
        <mxCell id="kabTlLA1WyUW2wctdZ1g-24" value="&amp;lt;&amp;lt;profile&amp;gt;&amp;gt;&lt;br&gt;server hardware" style="shape=folder;fontStyle=1;spacingTop=10;tabWidth=40;tabHeight=14;tabPosition=left;html=1;whiteSpace=wrap;" vertex="1" parent="1">
          <mxGeometry x="960" y="220" width="100" height="50" as="geometry" />
        </mxCell>
        <mxCell id="kabTlLA1WyUW2wctdZ1g-25" value="&amp;lt;&amp;lt;profile&amp;gt;&amp;gt;&lt;br&gt;software" style="shape=folder;fontStyle=1;spacingTop=10;tabWidth=40;tabHeight=14;tabPosition=left;html=1;whiteSpace=wrap;" vertex="1" parent="1">
          <mxGeometry x="1100" y="190" width="80" height="50" as="geometry" />
        </mxCell>
        <mxCell id="kabTlLA1WyUW2wctdZ1g-26" value="&amp;lt;&amp;lt;apply&amp;gt;&amp;gt;" style="endArrow=open;endSize=12;dashed=1;html=1;rounded=0;exitX=0.5;exitY=1;exitDx=0;exitDy=0;exitPerimeter=0;entryX=0;entryY=0;entryDx=40;entryDy=0;entryPerimeter=0;" edge="1" parent="1" source="kabTlLA1WyUW2wctdZ1g-22" target="kabTlLA1WyUW2wctdZ1g-23">
          <mxGeometry width="160" relative="1" as="geometry">
            <mxPoint x="880" y="170" as="sourcePoint" />
            <mxPoint x="1040" y="170" as="targetPoint" />
          </mxGeometry>
        </mxCell>
        <mxCell id="kabTlLA1WyUW2wctdZ1g-27" value="&amp;lt;&amp;lt;apply&amp;gt;&amp;gt;" style="endArrow=open;endSize=12;dashed=1;html=1;rounded=0;exitX=0.5;exitY=1;exitDx=0;exitDy=0;exitPerimeter=0;entryX=0;entryY=0;entryDx=40;entryDy=0;entryPerimeter=0;" edge="1" parent="1" source="kabTlLA1WyUW2wctdZ1g-22" target="kabTlLA1WyUW2wctdZ1g-24">
          <mxGeometry width="160" relative="1" as="geometry">
            <mxPoint x="1005" y="100" as="sourcePoint" />
            <mxPoint x="880" y="210" as="targetPoint" />
          </mxGeometry>
        </mxCell>
        <mxCell id="kabTlLA1WyUW2wctdZ1g-28" value="&amp;lt;&amp;lt;apply&amp;gt;&amp;gt;" style="endArrow=open;endSize=12;dashed=1;html=1;rounded=0;exitX=0.5;exitY=1;exitDx=0;exitDy=0;exitPerimeter=0;entryX=0;entryY=0;entryDx=0;entryDy=0;entryPerimeter=0;" edge="1" parent="1" source="kabTlLA1WyUW2wctdZ1g-22" target="kabTlLA1WyUW2wctdZ1g-25">
          <mxGeometry width="160" relative="1" as="geometry">
            <mxPoint x="1010" y="100" as="sourcePoint" />
            <mxPoint x="1010" y="250" as="targetPoint" />
          </mxGeometry>
        </mxCell>
        <mxCell id="kabTlLA1WyUW2wctdZ1g-30" value="&amp;lt;&amp;lt;profile&amp;gt;&amp;gt;&lt;br&gt;software" style="text;align=center;fontStyle=1;verticalAlign=middle;spacingLeft=3;spacingRight=3;strokeColor=none;rotatable=0;points=[[0,0.5],[1,0.5]];portConstraint=eastwest;html=1;" vertex="1" parent="1">
          <mxGeometry x="40" y="460" width="200" height="40" as="geometry" />
        </mxCell>
        <mxCell id="kabTlLA1WyUW2wctdZ1g-31" value="" style="shape=folder;fontStyle=1;spacingTop=10;tabWidth=200;tabHeight=40;tabPosition=left;html=1;whiteSpace=wrap;" vertex="1" parent="1">
          <mxGeometry x="920" y="770" width="620" height="290" as="geometry" />
        </mxCell>
        <mxCell id="kabTlLA1WyUW2wctdZ1g-32" value="" style="shape=folder;fontStyle=1;spacingTop=10;tabWidth=200;tabHeight=40;tabPosition=left;html=1;whiteSpace=wrap;" vertex="1" parent="1">
          <mxGeometry x="919" y="415" width="700" height="300" as="geometry" />
        </mxCell>
        <mxCell id="kabTlLA1WyUW2wctdZ1g-33" value="&amp;lt;&amp;lt;profile&amp;gt;&amp;gt;&lt;br&gt;bus hardware" style="text;align=center;fontStyle=1;verticalAlign=middle;spacingLeft=3;spacingRight=3;strokeColor=none;rotatable=0;points=[[0,0.5],[1,0.5]];portConstraint=eastwest;html=1;" vertex="1" parent="1">
          <mxGeometry x="920" y="770" width="200" height="40" as="geometry" />
        </mxCell>
        <mxCell id="kabTlLA1WyUW2wctdZ1g-34" value="&amp;lt;&amp;lt;profile&amp;gt;&amp;gt;&lt;br&gt;server hardware" style="text;align=center;fontStyle=1;verticalAlign=middle;spacingLeft=3;spacingRight=3;strokeColor=none;rotatable=0;portConstraint=eastwest;html=1;" vertex="1" parent="1">
          <mxGeometry x="919" y="415" width="200" height="40" as="geometry" />
        </mxCell>
        <mxCell id="kabTlLA1WyUW2wctdZ1g-43" value="&lt;p style=&quot;margin:0px;margin-top:4px;text-align:center;&quot;&gt;&lt;b&gt;&amp;lt;&amp;lt;stereotype&amp;gt;&amp;gt;&lt;br&gt;work station&lt;/b&gt;&lt;/p&gt;&lt;hr size=&quot;1&quot;&gt;&lt;p style=&quot;margin:0px;margin-left:4px;&quot;&gt;- MAC: String&lt;/p&gt;&lt;p style=&quot;margin:0px;margin-left:4px;&quot;&gt;- IP: String&lt;/p&gt;&lt;p style=&quot;margin:0px;margin-left:4px;&quot;&gt;- station: String&lt;/p&gt;&lt;p style=&quot;margin:0px;margin-left:4px;&quot;&gt;- speed: int&lt;/p&gt;&lt;p style=&quot;margin:0px;margin-left:4px;&quot;&gt;- hoursInRoad: Time&lt;/p&gt;&lt;p style=&quot;margin:0px;margin-left:4px;&quot;&gt;- BusDriverID: int&lt;/p&gt;&lt;p style=&quot;margin:0px;margin-left:4px;&quot;&gt;- BusID: int&amp;nbsp;&lt;/p&gt;&lt;br&gt;&lt;hr size=&quot;1&quot;&gt;&lt;p style=&quot;margin:0px;margin-left:4px;&quot;&gt;&lt;br&gt;&lt;/p&gt;" style="verticalAlign=top;align=left;overflow=fill;fontSize=12;fontFamily=Helvetica;html=1;whiteSpace=wrap;" vertex="1" parent="1">
          <mxGeometry x="1120" y="850" width="160" height="180" as="geometry" />
        </mxCell>
        <mxCell id="kabTlLA1WyUW2wctdZ1g-44" value="&lt;b&gt;&amp;lt;&amp;lt;metaclass&amp;gt;&amp;gt;&lt;br&gt;work station&lt;/b&gt;" style="html=1;whiteSpace=wrap;" vertex="1" parent="1">
          <mxGeometry x="965" y="915" width="110" height="50" as="geometry" />
        </mxCell>
        <mxCell id="kabTlLA1WyUW2wctdZ1g-47" value="" style="endArrow=block;startArrow=none;endFill=1;startFill=0;html=1;rounded=0;verticalAlign=middle;exitX=0;exitY=0.5;exitDx=0;exitDy=0;entryX=1;entryY=0.5;entryDx=0;entryDy=0;" edge="1" parent="1" source="kabTlLA1WyUW2wctdZ1g-43" target="kabTlLA1WyUW2wctdZ1g-44">
          <mxGeometry width="160" relative="1" as="geometry">
            <mxPoint x="-221" y="1590" as="sourcePoint" />
            <mxPoint x="-61" y="1590" as="targetPoint" />
          </mxGeometry>
        </mxCell>
        <mxCell id="kabTlLA1WyUW2wctdZ1g-48" value="&lt;b&gt;&amp;lt;&amp;lt;stereotype&amp;gt;&amp;gt;&lt;br&gt;GPS&lt;/b&gt;" style="html=1;whiteSpace=wrap;" vertex="1" parent="1">
          <mxGeometry x="1380" y="845" width="110" height="50" as="geometry" />
        </mxCell>
        <mxCell id="kabTlLA1WyUW2wctdZ1g-49" value="&lt;b style=&quot;border-color: var(--border-color);&quot;&gt;&amp;lt;&amp;lt;stereotype&amp;gt;&amp;gt;&lt;br&gt;tachograph&lt;br style=&quot;border-color: var(--border-color);&quot;&gt;&lt;/b&gt;" style="html=1;whiteSpace=wrap;" vertex="1" parent="1">
          <mxGeometry x="1380" y="915" width="110" height="50" as="geometry" />
        </mxCell>
        <mxCell id="kabTlLA1WyUW2wctdZ1g-50" value="&lt;b style=&quot;border-color: var(--border-color);&quot;&gt;&amp;lt;&amp;lt;stereotype&amp;gt;&amp;gt;&lt;br&gt;monitor&lt;br style=&quot;border-color: var(--border-color);&quot;&gt;&lt;/b&gt;" style="html=1;whiteSpace=wrap;" vertex="1" parent="1">
          <mxGeometry x="1380" y="985" width="110" height="50" as="geometry" />
        </mxCell>
        <mxCell id="kabTlLA1WyUW2wctdZ1g-51" value="" style="endArrow=block;endSize=16;endFill=0;html=1;rounded=0;exitX=0;exitY=0.5;exitDx=0;exitDy=0;entryX=1;entryY=0.25;entryDx=0;entryDy=0;" edge="1" parent="1" source="kabTlLA1WyUW2wctdZ1g-48" target="kabTlLA1WyUW2wctdZ1g-43">
          <mxGeometry x="0.0025" width="160" relative="1" as="geometry">
            <mxPoint x="59" y="1350" as="sourcePoint" />
            <mxPoint x="219" y="1350" as="targetPoint" />
            <mxPoint as="offset" />
          </mxGeometry>
        </mxCell>
        <mxCell id="kabTlLA1WyUW2wctdZ1g-52" value="" style="endArrow=block;endSize=16;endFill=0;html=1;rounded=0;exitX=0;exitY=0.5;exitDx=0;exitDy=0;entryX=1;entryY=0.5;entryDx=0;entryDy=0;" edge="1" parent="1" source="kabTlLA1WyUW2wctdZ1g-49" target="kabTlLA1WyUW2wctdZ1g-43">
          <mxGeometry width="160" relative="1" as="geometry">
            <mxPoint x="139" y="1340" as="sourcePoint" />
            <mxPoint x="79" y="1400" as="targetPoint" />
          </mxGeometry>
        </mxCell>
        <mxCell id="kabTlLA1WyUW2wctdZ1g-53" value="" style="endArrow=block;endSize=16;endFill=0;html=1;rounded=0;exitX=0;exitY=0.5;exitDx=0;exitDy=0;entryX=1;entryY=0.75;entryDx=0;entryDy=0;" edge="1" parent="1" source="kabTlLA1WyUW2wctdZ1g-50" target="kabTlLA1WyUW2wctdZ1g-43">
          <mxGeometry width="160" relative="1" as="geometry">
            <mxPoint x="149" y="1350" as="sourcePoint" />
            <mxPoint x="99" y="1420" as="targetPoint" />
          </mxGeometry>
        </mxCell>
        <mxCell id="kabTlLA1WyUW2wctdZ1g-54" value="&lt;p style=&quot;margin:0px;margin-top:4px;text-align:center;&quot;&gt;&lt;b&gt;&amp;lt;&amp;lt;stereotype&amp;gt;&amp;gt;&lt;br&gt;Employee&lt;/b&gt;&lt;/p&gt;&lt;hr size=&quot;1&quot;&gt;&lt;p style=&quot;margin:0px;margin-left:4px;&quot;&gt;# fisrtName: String&lt;/p&gt;&lt;p style=&quot;margin:0px;margin-left:4px;&quot;&gt;# lastName: String&lt;/p&gt;&lt;p style=&quot;margin:0px;margin-left:4px;&quot;&gt;# age: int&lt;/p&gt;&lt;p style=&quot;margin:0px;margin-left:4px;&quot;&gt;# id: int&lt;/p&gt;&lt;p style=&quot;margin:0px;margin-left:4px;&quot;&gt;# PESEL: String&lt;/p&gt;&lt;p style=&quot;margin:0px;margin-left:4px;&quot;&gt;# phoneNumber: String&lt;/p&gt;&lt;p style=&quot;margin:0px;margin-left:4px;&quot;&gt;# rate: Double&lt;/p&gt;&lt;hr size=&quot;1&quot;&gt;&lt;p style=&quot;margin:0px;margin-left:4px;&quot;&gt;# showSchedules(): void&lt;/p&gt;&lt;p style=&quot;margin:0px;margin-left:4px;&quot;&gt;# suggestShift(): boolean&lt;/p&gt;&lt;p style=&quot;margin:0px;margin-left:4px;&quot;&gt;# suggestVacation(): boolean&lt;/p&gt;&lt;p style=&quot;margin:0px;margin-left:4px;&quot;&gt;# login(): boolean&lt;/p&gt;" style="verticalAlign=top;align=left;overflow=fill;fontSize=12;fontFamily=Helvetica;html=1;whiteSpace=wrap;" vertex="1" parent="1">
          <mxGeometry x="260" y="540" width="170" height="220" as="geometry" />
        </mxCell>
        <mxCell id="kabTlLA1WyUW2wctdZ1g-55" value="&lt;p style=&quot;margin:0px;margin-top:4px;text-align:center;&quot;&gt;&lt;b&gt;&amp;lt;&amp;lt;stereotype&amp;gt;&amp;gt;&lt;/b&gt;&lt;/p&gt;&lt;p style=&quot;margin:0px;margin-top:4px;text-align:center;&quot;&gt;&lt;b&gt;Bus&lt;/b&gt;&lt;/p&gt;&lt;hr size=&quot;1&quot;&gt;&lt;p style=&quot;margin:0px;margin-left:4px;&quot;&gt;- registrationNumber: String&lt;/p&gt;&lt;p style=&quot;margin:0px;margin-left:4px;&quot;&gt;- brand: String&lt;/p&gt;&lt;p style=&quot;margin:0px;margin-left:4px;&quot;&gt;- model: String&lt;/p&gt;&lt;p style=&quot;margin:0px;margin-left:4px;&quot;&gt;- yearOfProduction: int&lt;/p&gt;&lt;p style=&quot;margin:0px;margin-left:4px;&quot;&gt;- seatingCapacity: int&lt;/p&gt;&lt;p style=&quot;margin:0px;margin-left:4px;&quot;&gt;- Route: String&lt;/p&gt;&lt;p style=&quot;margin:0px;margin-left:4px;&quot;&gt;- location: String&lt;/p&gt;&lt;p style=&quot;margin:0px;margin-left:4px;&quot;&gt;- avaiblity: boolean&lt;/p&gt;&lt;hr size=&quot;1&quot;&gt;&lt;p style=&quot;margin:0px;margin-left:4px;&quot;&gt;&lt;br&gt;&lt;/p&gt;" style="verticalAlign=top;align=left;overflow=fill;fontSize=12;fontFamily=Helvetica;html=1;whiteSpace=wrap;" vertex="1" parent="1">
          <mxGeometry x="260" y="810" width="170" height="185" as="geometry" />
        </mxCell>
        <mxCell id="kabTlLA1WyUW2wctdZ1g-56" value="&lt;p style=&quot;margin:0px;margin-top:4px;text-align:center;&quot;&gt;&lt;b&gt;&amp;lt;&amp;lt;stereotype&amp;gt;&amp;gt;&lt;/b&gt;&lt;/p&gt;&lt;p style=&quot;margin:0px;margin-top:4px;text-align:center;&quot;&gt;&lt;b&gt;Bus Driver&lt;/b&gt;&lt;/p&gt;&lt;hr size=&quot;1&quot;&gt;&lt;p style=&quot;margin:0px;margin-left:4px;&quot;&gt;- driverLicense: String&lt;/p&gt;&lt;p style=&quot;margin:0px;margin-left:4px;&quot;&gt;- workExperience: int&lt;/p&gt;&lt;p style=&quot;margin:0px;margin-left:4px;&quot;&gt;- dateOfDeployment: Date&lt;/p&gt;&lt;hr size=&quot;1&quot;&gt;&lt;p style=&quot;margin:0px;margin-left:4px;&quot;&gt;&lt;br&gt;&lt;/p&gt;" style="verticalAlign=top;align=left;overflow=fill;fontSize=12;fontFamily=Helvetica;html=1;whiteSpace=wrap;" vertex="1" parent="1">
          <mxGeometry x="520" y="510" width="160" height="110" as="geometry" />
        </mxCell>
        <mxCell id="kabTlLA1WyUW2wctdZ1g-57" value="&lt;p style=&quot;margin:0px;margin-top:4px;text-align:center;&quot;&gt;&lt;b style=&quot;border-color: var(--border-color);&quot;&gt;&amp;lt;&amp;lt;stereotype&lt;/b&gt;&lt;b style=&quot;background-color: initial; border-color: var(--border-color);&quot;&gt;&amp;gt;&amp;gt;&lt;/b&gt;&lt;/p&gt;&lt;p style=&quot;margin:0px;margin-top:4px;text-align:center;&quot;&gt;&lt;b&gt;Manager&lt;/b&gt;&lt;/p&gt;&lt;hr size=&quot;1&quot;&gt;&lt;p style=&quot;margin:0px;margin-left:4px;&quot;&gt;+ levelOfManagement: String&lt;/p&gt;&lt;hr size=&quot;1&quot;&gt;&lt;p style=&quot;margin:0px;margin-left:4px;&quot;&gt;+ addShift(): boolean&lt;/p&gt;&lt;p style=&quot;margin:0px;margin-left:4px;&quot;&gt;+ deleteShift(): boolean&lt;/p&gt;&lt;p style=&quot;margin:0px;margin-left:4px;&quot;&gt;+ modifyShift(): boolean&lt;/p&gt;&lt;p style=&quot;margin:0px;margin-left:4px;&quot;&gt;+ acceptVacation(): void&lt;/p&gt;&lt;p style=&quot;margin:0px;margin-left:4px;&quot;&gt;+ suggestTerminVacation(): void&lt;/p&gt;" style="verticalAlign=top;align=left;overflow=fill;fontSize=12;fontFamily=Helvetica;html=1;whiteSpace=wrap;" vertex="1" parent="1">
          <mxGeometry x="510" y="750" width="180" height="150" as="geometry" />
        </mxCell>
        <mxCell id="kabTlLA1WyUW2wctdZ1g-58" value="&lt;p style=&quot;margin:0px;margin-top:4px;text-align:center;&quot;&gt;&lt;b style=&quot;border-color: var(--border-color);&quot;&gt;&amp;lt;&amp;lt;stereotype&lt;/b&gt;&lt;b style=&quot;background-color: initial; border-color: var(--border-color);&quot;&gt;&amp;gt;&amp;gt;&lt;/b&gt;&lt;/p&gt;&lt;p style=&quot;margin:0px;margin-top:4px;text-align:center;&quot;&gt;&lt;b&gt;Accounting&lt;/b&gt;&lt;br&gt;&lt;/p&gt;&lt;hr size=&quot;1&quot;&gt;&lt;p style=&quot;margin:0px;margin-left:4px;&quot;&gt;&lt;br&gt;&lt;/p&gt;&lt;hr size=&quot;1&quot;&gt;&lt;p style=&quot;margin:0px;margin-left:4px;&quot;&gt;+ printRaport(): void&amp;nbsp;&lt;/p&gt;&lt;p style=&quot;margin:0px;margin-left:4px;&quot;&gt;+ exportRaport(): void&lt;/p&gt;" style="verticalAlign=top;align=left;overflow=fill;fontSize=12;fontFamily=Helvetica;html=1;whiteSpace=wrap;" vertex="1" parent="1">
          <mxGeometry x="520" y="630" width="160" height="110" as="geometry" />
        </mxCell>
        <mxCell id="kabTlLA1WyUW2wctdZ1g-68" value="Wartość atrybutu &quot;id&quot; nie może być mniejsza niż 0." style="shape=note2;boundedLbl=1;whiteSpace=wrap;html=1;size=11;verticalAlign=top;align=center;" vertex="1" parent="1">
          <mxGeometry x="60" y="555" width="160" height="60" as="geometry" />
        </mxCell>
        <mxCell id="kabTlLA1WyUW2wctdZ1g-69" value="Wartość atrybutu &quot;wiek&quot; nie może być mniejsza niż 0 ani większa niż 100." style="shape=note2;boundedLbl=1;whiteSpace=wrap;html=1;size=11;verticalAlign=top;align=center;" vertex="1" parent="1">
          <mxGeometry x="60" y="640" width="160" height="70" as="geometry" />
        </mxCell>
        <mxCell id="kabTlLA1WyUW2wctdZ1g-70" value="" style="endArrow=none;startArrow=none;endFill=0;startFill=0;endSize=8;html=1;verticalAlign=bottom;dashed=1;labelBackgroundColor=none;rounded=0;exitX=0;exitY=0;exitDx=160;exitDy=35.5;exitPerimeter=0;entryX=0;entryY=0.25;entryDx=0;entryDy=0;" edge="1" parent="1" source="kabTlLA1WyUW2wctdZ1g-68" target="kabTlLA1WyUW2wctdZ1g-54">
          <mxGeometry width="160" relative="1" as="geometry">
            <mxPoint x="254" y="460" as="sourcePoint" />
            <mxPoint x="414" y="460" as="targetPoint" />
          </mxGeometry>
        </mxCell>
        <mxCell id="kabTlLA1WyUW2wctdZ1g-72" value="" style="endArrow=none;startArrow=none;endFill=0;startFill=0;endSize=8;html=1;verticalAlign=bottom;dashed=1;labelBackgroundColor=none;rounded=0;exitX=0;exitY=0;exitDx=160;exitDy=40.5;exitPerimeter=0;entryX=0;entryY=0.5;entryDx=0;entryDy=0;" edge="1" parent="1" source="kabTlLA1WyUW2wctdZ1g-69" target="kabTlLA1WyUW2wctdZ1g-54">
          <mxGeometry width="160" relative="1" as="geometry">
            <mxPoint x="230" y="601" as="sourcePoint" />
            <mxPoint x="270" y="608" as="targetPoint" />
          </mxGeometry>
        </mxCell>
        <mxCell id="kabTlLA1WyUW2wctdZ1g-73" value="&lt;b&gt;&amp;lt;&amp;lt;metaclass&amp;gt;&amp;gt;&lt;br&gt;class&lt;br&gt;&lt;/b&gt;" style="html=1;whiteSpace=wrap;" vertex="1" parent="1">
          <mxGeometry x="700" y="923" width="110" height="50" as="geometry" />
        </mxCell>
        <mxCell id="kabTlLA1WyUW2wctdZ1g-74" value="" style="html=1;verticalAlign=bottom;labelBackgroundColor=none;endArrow=open;endFill=0;dashed=1;rounded=0;entryX=0.25;entryY=0;entryDx=0;entryDy=0;exitX=1;exitY=0.5;exitDx=0;exitDy=0;" edge="1" parent="1" source="kabTlLA1WyUW2wctdZ1g-57" target="kabTlLA1WyUW2wctdZ1g-73">
          <mxGeometry width="160" relative="1" as="geometry">
            <mxPoint x="600" y="820" as="sourcePoint" />
            <mxPoint x="760" y="820" as="targetPoint" />
          </mxGeometry>
        </mxCell>
        <mxCell id="kabTlLA1WyUW2wctdZ1g-75" value="" style="html=1;verticalAlign=bottom;labelBackgroundColor=none;endArrow=open;endFill=0;dashed=1;rounded=0;entryX=0.25;entryY=0;entryDx=0;entryDy=0;exitX=1;exitY=0.5;exitDx=0;exitDy=0;" edge="1" parent="1" source="kabTlLA1WyUW2wctdZ1g-58" target="kabTlLA1WyUW2wctdZ1g-73">
          <mxGeometry width="160" relative="1" as="geometry">
            <mxPoint x="700" y="850" as="sourcePoint" />
            <mxPoint x="782" y="950" as="targetPoint" />
          </mxGeometry>
        </mxCell>
        <mxCell id="kabTlLA1WyUW2wctdZ1g-76" value="" style="html=1;verticalAlign=bottom;labelBackgroundColor=none;endArrow=open;endFill=0;dashed=1;rounded=0;entryX=0.25;entryY=0;entryDx=0;entryDy=0;exitX=1;exitY=0.5;exitDx=0;exitDy=0;" edge="1" parent="1" source="kabTlLA1WyUW2wctdZ1g-56" target="kabTlLA1WyUW2wctdZ1g-73">
          <mxGeometry width="160" relative="1" as="geometry">
            <mxPoint x="690" y="700" as="sourcePoint" />
            <mxPoint x="782" y="950" as="targetPoint" />
          </mxGeometry>
        </mxCell>
        <mxCell id="kabTlLA1WyUW2wctdZ1g-77" value="" style="html=1;verticalAlign=bottom;labelBackgroundColor=none;endArrow=open;endFill=0;dashed=1;rounded=0;entryX=0;entryY=0.5;entryDx=0;entryDy=0;exitX=1;exitY=0.75;exitDx=0;exitDy=0;" edge="1" parent="1" source="kabTlLA1WyUW2wctdZ1g-55" target="kabTlLA1WyUW2wctdZ1g-73">
          <mxGeometry width="160" relative="1" as="geometry">
            <mxPoint x="690" y="700" as="sourcePoint" />
            <mxPoint x="782" y="950" as="targetPoint" />
          </mxGeometry>
        </mxCell>
        <mxCell id="kabTlLA1WyUW2wctdZ1g-79" value="" style="endArrow=block;endSize=16;endFill=0;html=1;rounded=0;exitX=0;exitY=0.5;exitDx=0;exitDy=0;entryX=1;entryY=0.75;entryDx=0;entryDy=0;" edge="1" parent="1" source="kabTlLA1WyUW2wctdZ1g-57" target="kabTlLA1WyUW2wctdZ1g-54">
          <mxGeometry width="160" relative="1" as="geometry">
            <mxPoint x="400" y="910" as="sourcePoint" />
            <mxPoint x="560" y="910" as="targetPoint" />
          </mxGeometry>
        </mxCell>
        <mxCell id="kabTlLA1WyUW2wctdZ1g-80" value="" style="endArrow=block;endSize=16;endFill=0;html=1;rounded=0;exitX=0;exitY=0.5;exitDx=0;exitDy=0;entryX=1;entryY=0.5;entryDx=0;entryDy=0;" edge="1" parent="1" source="kabTlLA1WyUW2wctdZ1g-58" target="kabTlLA1WyUW2wctdZ1g-54">
          <mxGeometry width="160" relative="1" as="geometry">
            <mxPoint x="520" y="850" as="sourcePoint" />
            <mxPoint x="440" y="715" as="targetPoint" />
          </mxGeometry>
        </mxCell>
        <mxCell id="kabTlLA1WyUW2wctdZ1g-81" value="" style="endArrow=block;endSize=16;endFill=0;html=1;rounded=0;exitX=0;exitY=0.5;exitDx=0;exitDy=0;entryX=1;entryY=0.25;entryDx=0;entryDy=0;" edge="1" parent="1" source="kabTlLA1WyUW2wctdZ1g-56" target="kabTlLA1WyUW2wctdZ1g-54">
          <mxGeometry width="160" relative="1" as="geometry">
            <mxPoint x="530" y="700" as="sourcePoint" />
            <mxPoint x="440" y="660" as="targetPoint" />
          </mxGeometry>
        </mxCell>
        <mxCell id="kabTlLA1WyUW2wctdZ1g-82" value="&lt;b&gt;&amp;lt;&amp;lt;metaclass&amp;gt;&amp;gt;&lt;br&gt;server&lt;br&gt;&lt;/b&gt;" style="html=1;whiteSpace=wrap;" vertex="1" parent="1">
          <mxGeometry x="965" y="565" width="110" height="50" as="geometry" />
        </mxCell>
      </root>
    </mxGraphModel>
  </diagram>
</mxfile>
